# xmcd
#
# Track frame offsets: 
#        150
#        11876
#        35286
#        53286
#        73047
#        88615
#        121325
#        141505
#        167982
#
# Disc length: 2429 seconds
#
# Revision: 1
# Processed by: cddbd v1.5.2PL0 Copyright (c) Steve Scherf et al.
# Submitted via: ExactAudioCopy v0.99pb5
#
DISCID=77097b09
DTITLE=Perry Blake - The Crying room
DYEAR=2005
DGENRE=Jazz
TTITLE0=The crying room
TTITLE1=Forgiveness
TTITLE2=Freedom
TTITLE3=These young dudes
TTITLE4=I got what i wanted
TTITLE5=If you don't want me
TTITLE6=New year's wish
TTITLE7=storms
TTITLE8=Blue sky calling
EXTD=YEAR: 2005
EXTT0=
EXTT1=
EXTT2=
EXTT3=
EXTT4=
EXTT5=
EXTT6=
EXTT7=
EXTT8=
PLAYORDER=
